<?xml version="1.0" encoding="UTF-8"?>
<svg width="17px" height="17px" viewBox="0 0 17 17" version="1.1" xmlns="http://www.w3.org/2000/svg" xmlns:xlink="http://www.w3.org/1999/xlink">
    <!-- Generator: Sketch 52 (66869) - http://www.bohemiancoding.com/sketch -->
    <title>96</title>
    <desc>Created with Sketch.</desc>
    <g id="Symbols" stroke="none" stroke-width="1" fill="none" fill-rule="evenodd">
        <g id="Header-Bar-/-Início" transform="translate(-1252.000000, -26.000000)" fill="#1976BC" fill-rule="nonzero">
            <g id="96" transform="translate(1252.000000, 26.000000)">
                <path d="M16.0212072,0 L11.8028795,0 C11.6448359,0 11.5169642,0.128230839 11.5169642,0.285915261 C11.5169642,0.443958873 11.6448359,0.571830522 11.8028795,0.571830522 L16.0212072,0.571830522 C16.0221052,0.571830522 16.0228235,0.572189712 16.0237215,0.572189712 L11.0837811,5.51213015 C10.972073,5.62347905 10.972073,5.80451083 11.0837811,5.91621893 C11.1954892,6.02792702 11.3765209,6.02792702 11.488229,5.91621893 L16.4279899,0.976458087 C16.4281695,0.977176467 16.4283491,0.978074442 16.4283491,0.978792822 L16.4283491,5.19712049 C16.4283491,5.3551641 16.5562207,5.48303575 16.7142643,5.48303575 C16.8723079,5.48303575 17,5.3551641 17,5.19712049 L17,0.978792822 C17,0.439109807 16.5608902,0 16.0212072,0 Z" id="Shape"></path>
                <path d="M16.7140847,11.5169642 C16.5560411,11.5169642 16.4281695,11.6448359 16.4281695,11.8028795 L16.4281695,16.0212072 C16.4281695,16.0219256 16.4279899,16.0228235 16.4279899,16.0235419 L11.488229,11.0837811 C11.3765209,10.972073 11.1954892,10.972073 11.0837811,11.0837811 C10.972073,11.1954892 10.972073,11.3765209 11.0837811,11.488229 L16.0237215,16.4279899 C16.0228235,16.4279899 16.0221052,16.4283491 16.0212072,16.4283491 L11.8028795,16.4283491 C11.6448359,16.4283491 11.5169642,16.5562207 11.5169642,16.7142643 C11.5169642,16.8723079 11.6448359,17 11.8028795,17 L16.0212072,17 C16.5608902,17 17,16.5608902 17,16.0212072 L17,11.8028795 C17,11.6448359 16.8721284,11.5169642 16.7140847,11.5169642 Z" id="Shape"></path>
                <path d="M5.48303575,16.7140847 C5.48303575,16.5560411 5.3551641,16.4281695 5.19712049,16.4281695 L0.978792822,16.4281695 C0.977894847,16.4281695 0.977176467,16.4278103 0.976278492,16.4278103 L5.91621893,11.488229 C6.02792702,11.3765209 6.02792702,11.1954892 5.91621893,11.0837811 C5.80451083,10.972073 5.62347905,10.972073 5.51195055,11.0837811 L0.572010117,16.0235419 C0.572010117,16.0228235 0.571830522,16.0219256 0.571830522,16.0212072 L0.571830522,11.8028795 C0.571830522,11.6448359 0.443779278,11.5169642 0.285915261,11.5169642 C0.128051244,11.5169642 0,11.6448359 0,11.8028795 L0,16.0212072 C0,16.5608902 0.439109807,17 0.978792822,17 L5.19712049,17 C5.3551641,17 5.48303575,16.8721284 5.48303575,16.7140847 Z" id="Shape"></path>
                <path d="M5.19696494,0.571830522 C5.35500382,0.571830522 5.48287164,0.443958873 5.48287164,0.285915261 C5.48287164,0.128230839 5.35500382,0 5.19696494,0 L0.978763525,0 C0.439096664,0 0,0.439109807 0,0.978792822 L0,5.19712049 C0,5.3551641 0.128047412,5.48303575 0.285906703,5.48303575 C0.443765995,5.48303575 0.571813406,5.3551641 0.571813406,5.19712049 L0.571813406,0.978792822 C0.571813406,0.977715252 0.571992996,0.977176467 0.571992996,0.976098897 L5.51196516,5.91621893 C5.62349032,6.02792702 5.80451668,6.02792702 5.91622143,5.91621893 C6.02792619,5.80451083 6.02792619,5.62347905 5.91622143,5.51213015 L0.97624927,0.572189712 C0.977326808,0.572189712 0.977865577,0.571830522 0.978943115,0.571830522 L5.19696494,0.571830522 Z" id="Shape"></path>
            </g>
        </g>
    </g>
</svg>